<?xml version="1.0" ?>
<!-- Uploaded to: SVG Repo, www.svgrepo.com, Generator: SVG Repo Mixer Tools -->
<svg fill="#000000" width="800px" height="800px" viewBox="0 0 64 64" xmlns="http://www.w3.org/2000/svg">
<g id="a"/>
<g id="b"/>
<g id="c"/>
<g id="d"/>
<g id="e"/>
<g id="f"/>
<g id="g"/>
<g id="h"/>
<g id="i"/>
<g id="j"/>
<g id="k"/>
<g id="l"/>
<g id="m"/>
<g id="n"/>
<g id="o"/>
<g id="p"/>
<g id="q"/>
<g id="r"/>
<g id="s"/>
<g id="t"/>
<g id="u"/>
<g id="v"/>
<g id="w"/>
<g id="x"/>
<g id="y"/>
<g id="a`"/>
<g id="aa"/>
<g id="ab"/>
<g id="ac"/>
<g id="ad"/>
<g id="ae"/>
<g id="af">
<path d="M13.1,33.92c0,1.06,.72,1.98,1.74,2.24l3.12,.79,3.01,6.04c.18,.36,.49,.63,.87,.76,.38,.13,.79,.1,1.16-.08,.29-.15,.53-.39,.67-.68l1.99-4.07,1.68,.43,3.5,19.66c.23,1.29,2.11,1.3,2.33,0l3.5-19.66,1.68-.43,1.99,4.06c.18,.36,.48,.63,.87,.76,.38,.13,.79,.1,1.15-.07,.3-.15,.54-.39,.68-.68l3.01-6.04,3.12-.79c1.03-.26,1.74-1.18,1.74-2.24v-14.63c0-.95-.45-1.86-1.21-2.44L33.42,4.48c-.84-.64-2-.64-2.84,0L14.31,16.86c-.76,.58-1.21,1.49-1.21,2.44v14.63Zm9.22,7.29l-1.8-3.6,3.16,.81-1.37,2.79Zm9.68,12.92l-2.53-14.23,1.29,.33c.41,.1,.82,.16,1.24,.16s.83-.05,1.24-.16l1.29-.33-2.53,14.23Zm.74-15.84c-.48,.12-1,.12-1.49,0l-4.69-1.2,5.44-11.09,5.43,11.09-4.69,1.2Zm8.94,2.92l-1.37-2.79,3.16-.81-1.8,3.6ZM15.1,19.3c0-.33,.16-.65,.42-.84L31.79,6.07c.12-.09,.29-.09,.42,0l16.27,12.38c.26,.2,.42,.52,.42,.85v14.63c0,.14-.1,.27-.24,.31l-9.25,2.36-5.62-11.46c-.24-.48-.64-.84-1.15-1.01-.51-.17-1.05-.14-1.53,.1-.4,.19-.72,.52-.92,.92l-5.62,11.46-9.25-2.36c-.14-.04-.24-.16-.24-.31v-14.63Z"/>
</g>
<g id="ag"/>
<g id="ah"/>
<g id="ai"/>
<g id="aj"/>
<g id="ak"/>
<g id="al"/>
<g id="am"/>
<g id="an"/>
<g id="ao"/>
<g id="ap"/>
<g id="aq"/>
<g id="ar"/>
<g id="as"/>
<g id="at"/>
<g id="au"/>
<g id="av"/>
<g id="aw"/>
<g id="ax"/>
</svg>